<svg xmlns="http://www.w3.org/2000/svg" viewBox="0 0 100 100">
  <!-- Background circle -->
  <circle cx="50" cy="50" r="48" fill="#0a0e27"/>
  <circle cx="50" cy="50" r="48" fill="none" stroke="url(#grad1)" stroke-width="2"/>
  
  <!-- Gradient definition -->
  <defs>
    <linearGradient id="grad1" x1="0%" y1="0%" x2="100%" y2="100%">
      <stop offset="0%" style="stop-color:#667eea;stop-opacity:1" />
      <stop offset="100%" style="stop-color:#ffd700;stop-opacity:1" />
    </linearGradient>
  </defs>
  
  <!-- Superhero figure -->
  <!-- Cape -->
  <path d="M 42 30 Q 30 40, 32 55 L 38 52 Z" fill="#ff1493" opacity="0.7"/>
  <path d="M 58 30 Q 70 40, 68 55 L 62 52 Z" fill="#ff1493" opacity="0.7"/>
  
  <!-- Body -->
  <ellipse cx="50" cy="45" rx="12" ry="18" fill="#667eea"/>
  
  <!-- Head -->
  <circle cx="50" cy="25" r="8" fill="#ffd700"/>
  
  <!-- Mask -->
  <ellipse cx="50" cy="24" rx="10" ry="4" fill="#000"/>
  
  <!-- Arms -->
  <ellipse cx="40" cy="40" rx="6" ry="3" fill="#ffd700" transform="rotate(-20 40 40)"/>
  <ellipse cx="60" cy="40" rx="6" ry="3" fill="#ffd700" transform="rotate(20 60 40)"/>
  
  <!-- Legs -->
  <rect x="45" y="60" width="4" height="13" fill="#667eea"/>
  <rect x="51" y="60" width="4" height="13" fill="#667eea"/>
  
  <!-- Belt -->
  <rect x="40" y="53" width="20" height="3" fill="#ffd700"/>
  
  <!-- Logo T -->
  <circle cx="50" cy="42" r="4" fill="#ffd700"/>
  <text x="50" y="45" font-size="6" fill="#667eea" text-anchor="middle" font-weight="bold">T</text>
  
  <!-- Stars around -->
  <path d="M 20 20 L 21 23 L 24 23 L 22 25 L 23 28 L 20 26 L 17 28 L 18 25 L 16 23 L 19 23 Z" fill="#ffd700" opacity="0.8"/>
  <path d="M 80 30 L 81 32 L 83 32 L 82 34 L 83 36 L 80 35 L 78 36 L 79 34 L 77 32 L 79 32 Z" fill="#ffd700" opacity="0.8"/>
  <path d="M 75 75 L 76 77 L 78 77 L 77 79 L 78 81 L 75 80 L 73 81 L 74 79 L 72 77 L 74 77 Z" fill="#667eea" opacity="0.8"/>
</svg>
